# xmcd CD database file
#
# Track frame offsets:
#	150
#	21232
#	33862
#	43635
#	54900
#	67912
#	85520
#	97422
#	108965
#	120397
#	135095
#	147952
#	156930
#	167500
#	180067
#	190335
#
# Disc length: 2695 seconds
#
# Revision: 0
# Processed by: cddbd v1.4PL0 Copyright (c) Steve Scherf et al.
# Submitted via: CDex 1.51
#
DISCID=be0a8510
DTITLE=Marty Robbins and Johnny Horton - 4 Country Giants
DYEAR=1900
DGENRE=Country
TTITLE0=El Paso
TTITLE1=The Streets Of Laredo
TTITLE2=Just Married
TTITLE3=A White Sports Coat (And A Pink Carnation)
TTITLE4=Devil Woman
TTITLE5=Big Iron
TTITLE6=18 Yellow Roses
TTITLE7=Ribbon Of Darkness
TTITLE8=The Battle Of New Orleans
TTITLE9=Sink The Bismarck
TTITLE10=North To Alaska
TTITLE11=Golden Rocket
TTITLE12=Johnny Reb
TTITLE13=All For The Love Of A Girl
TTITLE14=The Sinking Of Reuben James
TTITLE15=When It's Springtime in Alaska (It's Forty Below)
EXTD=
EXTT0=
EXTT1=
EXTT2=
EXTT3=
EXTT4=
EXTT5=
EXTT6=
EXTT7=
EXTT8=
EXTT9=
EXTT10=
EXTT11=
EXTT12=
EXTT13=
EXTT14=
EXTT15=
PLAYORDER=
